<svg width="2902" height="564" viewBox="0 0 2902 564" fill="none" xmlns="http://www.w3.org/2000/svg">
<path d="M1391.35 145.688L1384.25 174.335C1393.93 174.074 1427.78 171.469 1429.03 182.991C1431.98 209.983 1436.13 397.443 1428.4 411.571C1419.12 419.91 1409.97 417.547 1397.37 417.193L1320.46 417.36C1320.43 391.059 1317.9 194.606 1323.54 181.39C1332.34 172.325 1341.89 174.353 1354.36 174.428L1361.52 145.613L1391.35 145.688ZM1349.27 304.039C1349.34 331.997 1349.94 362.227 1349.17 390.018L1403.21 390.056C1403.15 361.558 1402.84 332.612 1403.16 304.17L1349.27 304.039ZM1402.89 201.251C1389.33 200.841 1376.62 200.45 1363.06 200.822C1357.73 200.822 1353.99 200.023 1349.88 203.336C1348.06 216.515 1349.32 260.649 1349.23 277.141L1383.68 277.178L1403.13 277.252C1403.13 252.942 1403.71 225.282 1402.89 201.251Z" fill="white"/>
<path d="M719.268 149.666L933.031 149.685L933.151 171.571C903.279 203 870.267 233.29 839.537 264.159C875.838 265.448 917.432 264.645 954.2 264.775L954.089 291.667L843.642 291.61C843.264 315.14 844.327 338.969 844.242 362.517C844.146 389.24 845.946 416.897 814.819 418.466L771.112 418.447L771.098 390.958C780.776 391.126 803.652 393.031 810.305 387.803C817.273 373.292 814.537 311.144 814.454 291.984C775.593 290.975 734.056 291.61 695 291.517L695.08 264.682C721.623 264.514 781.864 265.373 811.504 264.028C817 263.785 811.239 250.601 818.088 243.953C840.408 222.272 863.595 199.247 885.613 177.379L719.043 177.286L719.268 149.666Z" fill="white"/>
<path d="M2603.53 217.422C2615.11 217.403 2695.17 214.258 2696.8 223.975C2703.48 263.995 2700.56 313.732 2698.71 354.776C2698.47 360.378 2692.97 363.598 2689.27 365.851C2669.62 366.037 2607.79 369.332 2595.1 361.16C2590.49 349.247 2590.98 246.646 2593.72 228.051C2594.57 222.262 2599.3 219.749 2603.53 217.422ZM2671.61 303.236C2654.29 303.366 2636.38 303.738 2619.09 303.403C2619.04 312.151 2618.33 332.515 2620.26 340.017L2621.61 341.338L2673.45 341.45C2673.52 332.813 2674.39 311.053 2672.34 303.998L2671.61 303.236ZM2618.95 279.054C2637.29 278.737 2655.08 278.291 2673.45 279.072L2673.36 242.533L2619.19 242.347L2618.95 279.054Z" fill="white"/>
<path d="M2261.21 292.467L2449.98 292.523L2449.46 318.421C2424.06 319.341 2395.17 318.647 2369.5 318.665C2369.38 342.687 2369.42 366.709 2369.57 390.749L2474.6 391.087L2474.41 417.267H2451.58L2235.82 417.173L2235.8 391.012L2340.59 390.674C2340.75 366.69 2340.78 342.706 2340.66 318.703L2261.19 318.572L2261.21 292.467Z" fill="white"/>
<path d="M1718.97 266.247C1761.59 266.135 1804.27 265.947 1846.89 266.172C1854.25 266.209 1863.09 265.572 1868.58 270.839C1878.61 296.27 1831.84 350.189 1816.56 366.944C1829.48 376.933 1876.34 405.813 1881.81 413.778L1880.97 417.171C1874.32 419.195 1849.58 418.257 1841.28 418.201C1824.55 407.256 1811 397.867 1794.94 385.835C1779.3 397.605 1766.83 406.301 1750.57 416.889C1745.04 418.52 1709.43 419.326 1705.41 416.346C1709.24 407.556 1759.65 377.608 1773.24 366.925C1753.57 347.584 1740.98 331.167 1727.04 307.047L1758.9 306.204C1771.73 324.607 1778.9 333.172 1794.94 348.278C1814.75 326.594 1820.53 318.872 1835.07 292.86C1797.44 291.866 1756.8 292.541 1718.95 292.466L1718.97 266.247Z" fill="white"/>
<path d="M1082.72 229.281C1140.91 228.408 1200.94 229.169 1259.27 229.244L1259.1 256.327L1216.61 256.252C1216.69 274.351 1212.83 329.149 1221.19 343.219C1223.88 347.73 1253.71 345.874 1261.37 345.688L1261.4 372.159C1231.21 372.957 1194.49 382.721 1187.41 343.312L1187.28 256.364L1150.75 256.123C1148.43 310.01 1140.03 355.229 1087.71 376.465L1087.74 349.048C1117.88 321.538 1119.01 296.627 1122.24 256.364L1082.6 256.085L1082.72 229.281Z" fill="white"/>
<path d="M1470.43 144.865L1495.58 145.294L1488.33 172.687C1502.32 172.464 1545.3 169.391 1557.58 177.007C1560.74 178.981 1563.49 189.708 1563.61 194.401C1564.15 215.705 1563.36 236.859 1563.32 258.48C1563.24 299.505 1564.58 341.386 1563.1 382.281C1562.83 389.879 1558.41 404.218 1553.39 409.581C1542.46 421.294 1507.42 418.11 1490.66 417.961C1490.67 408.259 1489.02 403.342 1491.19 393.584C1495.29 388.91 1492.66 390.605 1500.4 390.325C1511.56 390.661 1523.5 392.877 1531.63 385.018C1536.3 370.605 1534.29 225.574 1534.24 199.913L1481.12 199.894L1467.68 242.576L1436.6 242.502C1447.65 213.377 1455.38 180.304 1464.98 150.638C1466.63 145.517 1466.48 146.578 1470.43 144.865Z" fill="white"/>
<path d="M1005.77 229.702C1014.41 229.405 1023.04 229.164 1031.68 228.979C1038.37 228.867 1052.93 227.977 1057.57 233.782C1069.32 248.487 1064.19 337.315 1064.25 361.942C1086.75 400.904 1118.89 390.834 1157.8 390.649C1192.71 390.315 1227.62 390.352 1262.53 390.723L1262.61 417.946H1212.37C1179.53 417.705 1146.58 418.706 1113.72 418.41C1086.92 418.169 1073.34 413.403 1054.78 393.319C1050.75 400.941 1044.27 410.566 1039.56 418.02L1003.41 418.169C1034.5 380.802 1036.03 364.575 1035.68 316.304L1035.1 256.814L1005.62 256.517L1005.77 229.702Z" fill="white"/>
<path d="M2088.03 144.959L2117.24 144.865C2116.77 176.546 2117.15 209.104 2117.19 240.841L2187.75 241.103L2187.8 268.337L2117.35 268.3C2116.51 317.838 2117.45 368.367 2116.93 418.185L2087.89 418.465L2087.97 268.431L2015 268.225V241.121L2088.11 241.084L2088.03 144.959Z" fill="white"/>
<path d="M2600.93 150.242C2625.45 150.149 2736.88 147.781 2752.96 153.375C2760.27 160.48 2761.67 170.4 2761.36 180.768C2759.28 253.381 2762.61 326.274 2760.22 398.831C2759.63 416.993 2746.32 418.485 2732.68 418.41L2698.2 418.466L2698.49 392.639C2710.2 392.714 2720.39 392.285 2732.1 391.614C2733.67 370.002 2732.75 336.362 2732.76 314.041L2732.85 176.685C2688.77 176.367 2644.7 176.405 2600.6 176.796L2600.93 150.242Z" fill="white"/>
<path d="M1734.66 148.78C1774.11 148.205 1814.53 148.613 1854.06 148.539C1853.94 174.53 1853.7 200.299 1854.5 226.271C1863.28 226.605 1872.94 226.512 1881.8 226.605L1881.37 252.188C1872.64 252.392 1863.9 252.504 1855.18 252.522C1822.43 252.262 1824.89 231.707 1825.31 204.25V174.771L1762.45 174.808C1762.37 225.325 1756.96 243.432 1710.2 258.867L1710.43 231.744C1740.8 214.305 1734.73 180.745 1734.66 148.78Z" fill="white"/>
<path d="M2335.85 145.185L2365.08 144.865L2370.8 164.619C2385.09 164.675 2407.11 165.672 2420.74 164.168C2473.23 158.36 2471.02 173.058 2469.01 222.715L2441.21 222.846L2441.78 190.631L2371.11 190.575L2269.28 190.462L2269.26 222.865L2240.79 222.771C2240.51 203.525 2240.65 183.94 2240.6 164.657L2340.66 164.581L2335.85 145.185Z" fill="white"/>
<path d="M1929.84 227.231C1946.53 227.231 1969.31 224.128 1984.15 230.427C1995.45 244.746 1990.54 354.599 1991.23 382.563L2023.15 371.086C2023.29 379.254 2024.36 392.862 2020.78 399.236C2008.68 403.816 1994.83 410.62 1982.14 412.208C1976.71 412.9 1972.12 412.414 1968.13 408.115C1955.12 394.152 1961.25 280.317 1960.53 254.409L1929.8 254.278L1929.84 227.231Z" fill="white"/>
<path d="M1625.14 227.217C1640.29 226.844 1666.07 224.535 1679.14 230.494C1690.1 243.064 1685.41 356.958 1685.61 380.496C1694.13 377.144 1703.75 372.749 1712.27 369.081C1712.5 378.597 1713.23 387.181 1711.31 396.437L1707.85 398.746C1672.21 414.947 1656.95 424.146 1655.9 369.788C1655.71 359.658 1655.95 349.043 1655.98 338.894L1656.22 254.61C1646.12 254.163 1635.18 254.256 1625 254.107L1625.14 227.217Z" fill="white"/>
<path d="M2531.28 214.579L2559.8 214.467L2559.66 418.467L2531 418.373L2531.28 214.579Z" fill="white"/>
<path d="M1097.23 152.066L1245.8 152.124L1245.58 179.475L1097 179.666L1097.23 152.066Z" fill="white"/>
<path d="M2377.41 213.489L2408.6 213.266C2426.21 234.046 2435.29 242.652 2458.99 254.417L2459.01 281.666C2424.94 270.588 2395.87 246.313 2377.41 213.489Z" fill="white"/>
<path d="M2301.08 213.266L2333 213.489C2313.24 244.344 2299.51 256.607 2268.38 273.765L2249 282.866L2249.1 254.709C2273.79 242.278 2282.44 234.685 2301.08 213.266Z" fill="white"/>
<path d="M1454.6 262.779L1484.14 262.467L1506.2 337.956L1475.83 338.067L1454.6 262.779Z" fill="white"/>
<path d="M1643 148.63L1672.91 148.467L1694.6 201.995L1663.61 202.467L1643 148.63Z" fill="white"/>
<path d="M1949 148.594L1979.57 148.467C1985.88 164.072 1995.95 186.517 2000.6 202.122L1969.61 202.467C1962.36 184.666 1955.49 166.703 1949 148.594Z" fill="white"/>
<path d="M1017.8 149.799L1047.79 149.666C1052.11 161.125 1066.11 195.462 1068.2 205.743L1038.35 206.066C1030.88 186.816 1024.2 169.562 1017.8 149.799Z" fill="white"/>
<path d="M2535.8 146.269L2565.09 146.066C2572.77 163.07 2580.23 180.202 2587.4 197.463L2557.75 197.666C2550.23 180.7 2542.37 163.642 2535.8 146.269Z" fill="white"/>
<path d="M147.391 196.092C141.703 208.416 137.205 221.679 132.609 234.473C136.735 228.969 138.806 223.659 141.746 217.482C145.312 209.99 148.7 203.069 153.476 196.251C181.952 155.441 225.429 127.566 274.4 118.721C325.857 109.779 382.92 123.121 425.007 154.323C449.388 172.398 464.962 191.068 470.201 221.649C470.201 221.649 470.691 226.36 470.569 229.381C470.445 232.428 469.561 237.124 469.561 237.124C462.076 296.081 369.985 342.869 322.558 367.579C305.391 376.524 285.381 386.417 266.557 391.204C245.443 396.521 223.495 397.671 201.94 394.587C171.774 390.194 140.963 371.831 127.636 343.393C122.01 331.388 114.892 311.221 116.906 297.753C90.2385 324.72 60.4607 358.358 52.1466 396.439C48.7225 412.123 48.6267 428.775 57.6105 442.681C66.7132 456.771 82.2892 465.172 98.348 468.637C183.468 487.003 307.724 427.565 380.372 386.5C390.646 380.692 401.055 375.013 411.105 368.826C428.78 357.801 446.234 346.427 463.459 334.711C472.974 328.097 481.935 320.848 491.764 314.5C491.71 320.808 489.684 330.459 488.328 336.745C484.36 355.105 477.793 373.832 468.787 390.318C447.238 429.251 412.367 459.104 370.579 474.395C360.426 478.101 349.988 480.359 339.439 482.607C334.939 483.567 332.081 483.689 327.942 485.865C341.761 486.753 361.59 483.069 375.293 480.275C452.457 464.542 515.989 399.683 531.356 322.661C533.016 314.344 533.678 305.426 534.792 296.737C535.414 291.867 534.291 282.93 535.678 278.01C540.706 270.473 549.497 263.154 556.087 256.182C572.322 239.8 585.21 222.811 596.918 203.055C615.663 171.415 627.057 123.907 586.897 102.838C543.422 80.0268 482.441 94.8111 437.542 108.022C430.42 102.445 409.718 92.8348 400.952 89.6901C350.184 71.6318 294.306 74.5898 245.728 97.9073C202.275 118.378 167.538 152.44 147.391 196.092Z" fill="white"/>
</svg>
