<svg width="2902" height="564" viewBox="0 0 2902 564" fill="none" xmlns="http://www.w3.org/2000/svg">
<path d="M1483.04 168.352L1477.13 192.224C1485.19 192.006 1513.4 189.836 1514.45 199.438C1516.9 221.931 1520.36 378.146 1513.91 389.921C1506.19 396.87 1498.56 394.9 1488.06 394.605L1423.97 394.745C1423.94 372.827 1421.83 209.119 1426.53 198.104C1433.86 190.549 1441.83 192.24 1452.22 192.302L1458.19 168.289L1483.04 168.352ZM1447.98 300.31C1448.04 323.608 1448.53 348.799 1447.9 371.958L1492.93 371.989C1492.88 348.241 1492.62 324.12 1492.89 300.418L1447.98 300.31ZM1492.66 214.653C1481.36 214.312 1470.77 213.986 1459.47 214.296C1455.03 214.296 1451.91 213.63 1448.49 216.391C1446.97 227.373 1448.02 264.151 1447.95 277.895L1476.65 277.925L1492.87 277.987C1492.87 257.729 1493.35 234.679 1492.66 214.653Z" fill="white"/>
<path d="M922.969 171.666L1101.11 171.682L1101.21 189.92C1076.31 216.111 1048.8 241.353 1023.19 267.077C1053.44 268.151 1088.11 267.481 1118.75 267.59L1118.65 290L1026.61 289.953C1026.3 309.561 1027.19 329.418 1027.11 349.042C1027.03 371.311 1028.53 394.359 1002.6 395.666L966.173 395.65L966.161 372.743C974.226 372.883 993.289 374.47 998.834 370.113C1004.64 358.021 1002.36 306.231 1002.29 290.264C969.907 289.424 935.293 289.953 902.746 289.875L902.812 267.513C924.932 267.372 975.133 268.088 999.832 266.968C1004.41 266.766 999.612 255.779 1005.32 250.239C1023.92 232.171 1043.24 212.983 1061.59 194.76L922.782 194.682L922.969 171.666Z" fill="white"/>
<path d="M2493.19 228.13C2502.84 228.114 2569.55 225.493 2570.92 233.59C2576.48 266.94 2574.04 308.388 2572.51 342.591C2572.31 347.26 2567.73 349.943 2564.64 351.82C2548.27 351.975 2496.74 354.721 2486.16 347.911C2482.32 337.982 2482.73 252.484 2485.02 236.987C2485.73 232.163 2489.67 230.069 2493.19 228.13ZM2549.92 299.641C2535.48 299.749 2520.56 300.06 2506.15 299.78C2506.11 307.071 2505.52 324.041 2507.13 330.292L2508.26 331.394L2551.45 331.486C2551.51 324.289 2552.23 306.157 2550.52 300.277L2549.92 299.641ZM2506.04 279.489C2521.33 279.226 2536.15 278.853 2551.45 279.505L2551.38 249.055L2506.24 248.9L2506.04 279.489Z" fill="white"/>
<path d="M2207.91 290.666L2365.23 290.713L2364.79 312.295C2343.63 313.061 2319.55 312.482 2298.16 312.498C2298.06 332.516 2298.09 352.534 2298.22 372.568L2385.75 372.85L2385.59 394.666H2366.56L2186.76 394.588L2186.75 372.787L2274.07 372.505C2274.2 352.519 2274.23 332.532 2274.13 312.529L2207.9 312.42L2207.91 290.666Z" fill="white"/>
<path d="M1756.05 268.816C1791.57 268.723 1827.13 268.567 1862.65 268.754C1868.78 268.785 1876.15 268.254 1880.72 272.643C1889.08 293.836 1850.11 338.768 1837.37 352.731C1848.14 361.055 1887.19 385.122 1891.75 391.759L1891.05 394.586C1885.51 396.273 1864.89 395.492 1857.98 395.445C1844.03 386.324 1832.74 378.5 1819.36 368.473C1806.32 378.281 1795.94 385.528 1782.38 394.352C1777.78 395.711 1748.1 396.382 1744.75 393.899C1747.94 386.574 1789.95 361.617 1801.27 352.715C1784.88 336.597 1774.39 322.916 1762.77 302.816L1789.32 302.114C1800.02 317.45 1805.99 324.587 1819.36 337.175C1835.87 319.106 1840.69 312.671 1852.8 290.994C1821.44 290.166 1787.57 290.728 1756.03 290.666L1756.05 268.816Z" fill="white"/>
<path d="M1225.84 238.012C1274.33 237.285 1324.36 237.919 1372.97 237.981L1372.83 260.551L1337.42 260.489C1337.49 275.571 1334.27 321.235 1341.23 332.961C1343.47 336.72 1368.34 335.173 1374.72 335.018L1374.75 357.077C1349.59 357.742 1318.98 365.879 1313.09 333.038L1312.98 260.582L1282.54 260.38C1280.6 305.287 1273.6 342.969 1230.01 360.666L1230.03 337.818C1255.14 314.893 1256.08 294.134 1258.78 260.582L1225.75 260.349L1225.84 238.012Z" fill="white"/>
<path d="M1548.94 167.666L1569.89 168.023L1563.85 190.851C1575.51 190.665 1611.33 188.104 1621.56 194.451C1624.2 196.096 1626.48 205.035 1626.58 208.946C1627.04 226.699 1626.37 244.328 1626.34 262.345C1626.28 296.532 1627.39 331.434 1626.16 365.512C1625.94 371.844 1622.25 383.793 1618.07 388.262C1608.96 398.024 1579.77 395.37 1565.79 395.246C1565.8 387.161 1564.43 383.064 1566.23 374.932C1569.66 371.037 1567.46 372.449 1573.91 372.216C1583.21 372.496 1593.16 374.342 1599.94 367.793C1603.83 355.782 1602.16 234.924 1602.12 213.539L1557.85 213.523L1546.64 249.092L1520.75 249.03C1529.95 224.759 1536.39 197.198 1544.39 172.477C1545.77 168.209 1545.65 169.094 1548.94 167.666Z" fill="white"/>
<path d="M1161.72 238.363C1168.91 238.116 1176.11 237.915 1183.31 237.761C1188.89 237.668 1201.01 236.926 1204.88 241.763C1214.68 254.018 1210.4 328.041 1210.45 348.563C1229.2 381.032 1255.99 372.64 1288.41 372.486C1317.5 372.208 1346.59 372.238 1375.68 372.547L1375.75 395.233H1333.88C1306.52 395.033 1279.06 395.867 1251.68 395.62C1229.34 395.419 1218.02 391.447 1202.56 374.711C1199.2 381.062 1193.8 389.083 1189.88 395.295L1159.75 395.419C1185.65 364.28 1186.93 350.758 1186.64 310.532L1186.16 260.957L1161.59 260.709L1161.72 238.363Z" fill="white"/>
<path d="M2063.6 167.744L2087.95 167.666C2087.55 194.067 2087.87 221.199 2087.9 247.646L2146.7 247.864L2146.75 270.559L2088.03 270.528C2087.33 311.81 2088.12 353.917 2087.68 395.433L2063.49 395.666L2063.56 270.637L2002.75 270.466V247.879L2063.67 247.848L2063.6 167.744Z" fill="white"/>
<path d="M2491.02 172.146C2511.45 172.069 2604.31 170.095 2617.71 174.757C2623.8 180.678 2624.97 188.945 2624.71 197.584C2622.98 258.095 2625.75 318.839 2623.76 379.303C2623.27 394.439 2612.18 395.682 2600.81 395.62L2572.07 395.666L2572.32 374.144C2582.08 374.206 2590.57 373.849 2600.33 373.289C2601.63 355.279 2600.87 327.246 2600.88 308.645L2600.95 194.181C2564.22 193.917 2527.49 193.948 2490.75 194.275L2491.02 172.146Z" fill="white"/>
<path d="M1769.13 170.927C1802 170.448 1835.69 170.788 1868.63 170.726C1868.53 192.385 1868.32 213.859 1868.99 235.503C1876.31 235.781 1884.36 235.704 1891.75 235.781L1891.38 257.1C1884.11 257.271 1876.83 257.363 1869.56 257.379C1842.27 257.162 1844.32 240.033 1844.67 217.152V192.586L1792.29 192.617C1792.22 234.715 1787.71 249.803 1748.75 262.666L1748.94 240.064C1774.25 225.531 1769.19 197.564 1769.13 170.927Z" fill="white"/>
<path d="M2270.12 167.932L2294.48 167.666L2299.25 184.127C2311.16 184.174 2329.5 185.005 2340.86 183.752C2384.6 178.912 2382.76 191.16 2381.09 232.541L2357.92 232.65L2358.4 205.805L2299.51 205.757L2214.64 205.664L2214.63 232.666L2190.91 232.588C2190.67 216.549 2190.79 200.229 2190.75 184.159L2274.13 184.096L2270.12 167.932Z" fill="white"/>
<path d="M1931.78 236.303C1945.68 236.303 1964.66 233.717 1977.04 238.967C1986.45 250.898 1982.36 342.443 1982.93 365.746L2009.53 356.182C2009.65 362.989 2010.54 374.329 2007.56 379.64C1997.48 383.457 1985.94 389.127 1975.36 390.451C1970.84 391.027 1967.01 390.622 1963.69 387.039C1952.84 375.403 1957.95 280.541 1957.35 258.951L1931.75 258.842L1931.78 236.303Z" fill="white"/>
<path d="M1677.86 236.291C1690.49 235.981 1711.97 234.056 1722.86 239.022C1732 249.497 1728.09 344.408 1728.25 364.024C1735.35 361.23 1743.37 357.568 1750.47 354.511C1750.66 362.441 1751.27 369.595 1749.67 377.308L1746.78 379.232C1717.08 392.733 1704.37 400.399 1703.5 355.101C1703.34 346.659 1703.54 337.813 1703.56 329.355L1703.76 259.119C1695.34 258.746 1686.23 258.824 1677.75 258.7L1677.86 236.291Z" fill="white"/>
<path d="M2432.98 225.759L2456.75 225.666L2456.63 395.666L2432.75 395.588L2432.98 225.759Z" fill="white"/>
<path d="M1237.94 173.666L1361.75 173.714L1361.56 196.506L1237.75 196.666L1237.94 173.666Z" fill="white"/>
<path d="M2304.75 224.852L2330.74 224.666C2345.42 241.983 2352.98 249.154 2372.73 258.959L2372.75 281.666C2344.36 272.435 2320.13 252.206 2304.75 224.852Z" fill="white"/>
<path d="M2241.15 224.666L2267.75 224.852C2251.28 250.564 2239.84 260.784 2213.89 275.083L2197.75 282.666L2197.83 259.202C2218.41 248.843 2225.61 242.516 2241.15 224.666Z" fill="white"/>
<path d="M1535.75 265.926L1560.36 265.666L1578.75 328.574L1553.43 328.666L1535.75 265.926Z" fill="white"/>
<path d="M1692.75 170.802L1717.67 170.666L1735.75 215.273L1709.92 215.666L1692.75 170.802Z" fill="white"/>
<path d="M1947.75 170.772L1973.22 170.666C1978.48 183.67 1986.87 202.375 1990.75 215.379L1964.92 215.666C1958.88 200.832 1953.15 185.863 1947.75 170.772Z" fill="white"/>
<path d="M1171.75 171.777L1196.73 171.666C1200.33 181.215 1212 209.83 1213.75 218.397L1188.87 218.666C1182.64 202.625 1177.08 188.246 1171.75 171.777Z" fill="white"/>
<path d="M2436.75 168.835L2461.15 168.666C2467.55 182.835 2473.77 197.112 2479.75 211.497L2455.04 211.666C2448.76 197.528 2442.21 183.312 2436.75 168.835Z" fill="white"/>
<path d="M512.025 153.411C527.798 151.509 551.611 156.746 566.312 162.57C598.519 175.537 624.316 200.67 638.117 232.524C654.49 270.719 651.325 305.36 636.158 342.811C599.744 356.424 551.923 369.052 514.125 376.497C488.782 382.075 462.132 385.088 436.413 388.376C435.144 387.36 433.893 386.325 432.661 385.265C406.261 362.5 390.033 330.145 387.579 295.372C384.799 260.12 396.349 225.235 419.617 198.606C444.012 170.64 475.27 156 512.025 153.411Z" fill="white"/>
<path d="M768.108 185.811C796.078 188.862 858.11 198.951 848.056 241.111C841.297 269.46 801.644 300.078 776.858 314.868C649.872 390.408 499.606 428.42 352.41 435.517C318.57 437.146 176.296 438.719 188.773 375.193C193.585 350.688 234.803 322.886 257.263 309.942C271.641 301.785 286.454 294.417 301.633 287.871C305.996 285.945 313.694 282.305 318.029 281.354L318.695 281.802L318.303 284.495C317.393 286.15 297.528 295.79 293.191 298.355C267.874 313.64 230.984 334.515 221.104 363.841C212.939 388.076 244.335 401.699 262.732 405.618C299.921 413.535 340.893 414.135 378.824 410.982C506.703 400.34 638.789 367.08 750.755 303.318C773.857 288.616 807.669 267.373 815.219 239.879C821.844 215.741 791.994 202.733 773.031 198.592C771.904 194.02 770.006 190.099 768.108 185.811Z" fill="white"/>
<path d="M508.713 95.2491C512.798 95.0183 516.882 94.9479 520.972 95.0379C554.085 95.6863 586.421 105.213 614.593 122.623C618.022 124.77 624.739 128.677 627.329 131.362C623.827 130.48 613.969 124.143 609.689 122.385C595.128 116.399 581.278 111.557 565.842 108.527C516.79 98.5764 465.804 108.658 424.235 136.525C384.275 163.577 356.771 205.463 347.828 252.882C338.157 303.931 350.827 350.384 379.793 392.638C350.346 393.93 317.666 393.966 288.865 387.672C237.575 375.671 246.392 345.955 282.407 321.122C289.475 316.248 298.367 310.112 306.254 306.919C216.248 368.459 300.579 387.61 361.874 389.705C342.238 359.641 332.174 333.115 329.403 296.737C325.671 247.754 342.3 196.093 375.245 159.139C409.258 120.662 457.413 97.6108 508.713 95.2491Z" fill="white"/>
<path d="M671.456 385.283C671.046 387.549 662.21 397.627 659.963 400.199C599.627 469.273 503.68 487.624 422.103 447.322C419.214 445.828 416.224 444.04 413.387 442.417C420.893 442.209 431.862 440.58 439.379 439.484C465.982 450.867 489.125 455.753 518.251 455.184C565.944 453.904 611.873 436.894 648.886 406.787C657.642 399.623 663.668 393.384 671.456 385.283Z" fill="white"/>
<path d="M732.502 176.865C748.599 174.807 763.313 186.206 765.346 202.311C767.379 218.415 755.953 233.111 739.849 235.117C723.776 237.117 709.124 225.726 707.097 209.659C705.071 193.592 716.435 178.918 732.502 176.865Z" fill="white"/>
<path d="M453.32 139.932C470.15 131.928 484.53 126.721 502.842 123.858C570.373 113.297 637.745 150.115 665.819 212.293C669.077 219.506 679.67 246.521 678.549 254.256C677.386 252.546 677.986 253.575 677.71 251.622C677.006 246.685 674.759 240.943 673.143 236.187C662.991 206.706 644.523 180.793 619.97 161.575C585.754 134.646 542.073 122.752 498.927 128.614C484.957 130.417 466.689 135.04 453.854 141.103L453.32 139.932Z" fill="white"/>
<path d="M762.776 232.986C769.738 237.257 769.291 251.458 766.186 257.794C748.687 293.559 700.033 315.54 665.67 330.858C664.77 331.197 663.821 331.42 662.891 331.678C664.121 330.21 678.627 322.323 681.639 320.444C709.456 302.942 739.551 285.354 757.265 256.715C762.77 247.811 760.468 236.937 762.776 232.986Z" fill="white"/>
<path d="M697.221 185.258L705.205 185.027C703.858 187.338 702.566 190.194 701.379 192.632C692.58 192.248 682.783 192.728 673.892 192.99C672.282 193.079 671.67 193.033 670.059 192.895C668.069 191.803 667.206 189.662 666.055 187.622C676.433 186.685 686.824 185.897 697.221 185.258Z" fill="white"/>
<path d="M453.85 141.103C449.708 143.226 445.504 145.515 441.137 147.093C443.793 144.629 449.972 141.498 453.317 139.932L453.85 141.103Z" fill="white"/>
</svg>
